<svg version="1.0" xmlns="http://www.w3.org/2000/svg" width="40" height="26.667" viewBox="0 0 30 20"><path d="M26 .5c0 1 3 6.5 3.5 6.5.3 0 .5-1.6.5-3.5C30 .7 29.6 0 28 0c-1.1 0-2 .2-2 .5zM2.8 8c.4 5.9.4 5.9 2.6 4.5 2-1.3 2.5-1.3 4.2 0 2.5 1.9 9.3 1.9 11.8 0 1.7-1.3 2.2-1.3 4.3 0 3 2 3 .6.1-5.6l-2.3-4.8L13 2H2.5l.3 6zm19.2.5c0 1.2-1.6 1.5-8 1.5s-8-.3-8-1.5S7.6 7 14 7s8 .3 8 1.5zM6.5 16c-.3.5.1 1 .9 1 .9 0 1.6-.5 1.6-1 0-.6-.4-1-.9-1-.6 0-1.3.4-1.6 1zm16 0c-.3.5.1 1 .9 1 .9 0 1.6-.5 1.6-1 0-.6-.4-1-.9-1-.6 0-1.3.4-1.6 1zM0 18.5c0 .9.9 1.5 2.5 1.5 1.8 0 2.3-.4 1.9-1.5-.8-2-4.4-2-4.4 0zm10.6 0c-.4 1.2.5 1.5 4.9 1.5s5.3-.3 4.9-1.5c-.8-2.1-9-2.1-9.8 0zm16 0c-.4 1 .1 1.5 1.4 1.5 1.1 0 2-.7 2-1.5 0-1.9-2.6-1.9-3.4 0z"/></svg>