<svg xmlns="http://www.w3.org/2000/svg" height="751.919" width="1322.265"><path d="M1278.645 553.425l-74.538 121.47h-.552v-121.47h-46.103v196.008h44.723l73.434-118.71.552.277v118.433h46.104V553.425zm-144.916 0h-58.252l-56.869 75.091h-.552v-75.09h-46.104v196.007h46.104V692.84l14.632-17.945 46.93 74.538h56.595l-73.158-110.98zm-318.013 121.47h-.552v-121.47h-46.103v196.008h44.723l73.435-118.71.552.277v118.433h46.104V553.425h-43.62zm36.441-134.17c29.264 0 45.276-13.252 51.074-38.926l-34.234-3.314c-1.932 9.111-6.625 17.394-16.564 17.394-10.214 0-14.906-8.283-16.84-17.394l-34.232 3.314c6.074 25.674 21.534 38.926 50.796 38.926zM637.12 709.128c-30.92 0-52.73-25.674-52.73-57.7 0-32.023 21.81-57.697 52.73-57.697 30.368 0 52.454 25.123 52.454 57.697 0 32.577-22.086 57.7-52.454 57.7zm0-158.465c-59.631 0-101.042 41.688-101.042 100.765 0 59.08 41.411 100.49 101.042 100.49 58.526 0 100.765-40.582 100.765-100.49 0-60.181-42.239-100.765-100.765-100.765zm-199.86 95.245h-20.705v-51.901h21.533c20.705 0 30.092 11.042 30.092 25.95 0 16.288-10.49 25.95-30.92 25.95zm8.833-92.483h-74.537v196.008h44.999v-63.22h25.95c44.447 0 73.435-21.533 73.435-65.152 0-39.201-21.533-67.636-69.847-67.636zm-250.38 41.134h51.074v154.874h46.932V594.56h51.348v-41.134H195.713zm-94.395 113.189c-32.024 0-52.73-24.57-52.73-56.043 0-35.889 24.019-56.87 52.454-56.87 19.049 0 34.785 10.214 45.275 22.638l33.68-28.989c-21.533-26.225-51.349-37.821-78.955-37.821-64.6 0-101.042 45-101.042 101.042C0 716.857 45 751.92 101.318 751.92c34.785 0 62.115-16.564 78.955-37.27l-33.68-28.988c-11.318 13.528-27.054 22.087-45.275 22.087zm601.78-389.35c30.369 0 52.453 25.123 52.453 57.698 0 32.577-22.084 57.7-52.454 57.7-30.918 0-52.729-25.675-52.729-57.7 0-32.023 21.81-57.697 52.73-57.697zm0 158.189c58.527 0 100.765-40.583 100.765-100.491 0-60.181-42.238-100.764-100.766-100.764-59.63 0-101.041 41.687-101.041 100.764 0 59.08 41.41 100.49 101.041 100.49zm-193.511-42.515h-31.472v-42.239h29.816c17.116 0 26.226 8.006 26.226 21.258 0 13.804-9.11 20.981-24.57 20.981zm-31.472-115.673h22.637c19.05 0 25.123 7.729 25.123 19.049 0 12.975-8.283 19.324-22.638 19.324h-25.122zM581.917 419.44c0-24.293-11.872-42.513-39.754-49.692v-.552c22.638-8.835 29.54-26.503 29.54-43.344 0-30.092-20.982-47.759-64.324-47.759h-74.264v196.008h84.201c43.896 0 64.601-22.913 64.601-54.661zm-280.744 14.356c-30.92 0-52.729-25.675-52.729-57.7 0-32.023 21.81-57.697 52.73-57.697 30.367 0 52.453 25.122 52.453 57.697 0 32.577-22.086 57.7-52.454 57.7zm0-158.464c-59.63 0-101.041 41.687-101.041 100.764 0 59.08 41.41 100.49 101.041 100.49 58.527 0 100.767-40.582 100.767-100.49 0-60.181-42.24-100.764-100.767-100.764zM53.833 400.115h69.018V474.1h46.38V278.093h-46.38v81.164H53.833v-81.164H7.178v196.008h46.655zm410.76-357.048c30.368 0 52.454 25.122 52.454 57.698s-22.086 57.699-52.454 57.699c-30.92 0-52.729-25.675-52.729-57.699s21.81-57.698 52.73-57.698zm0 158.188c58.527 0 100.766-40.582 100.766-100.49C565.359 40.583 523.12 0 464.593 0c-59.63 0-101.041 41.687-101.041 100.765 0 59.079 41.41 100.49 101.041 100.49zM244.028 43.343h21.533c20.706 0 30.092 11.042 30.092 25.95 0 16.288-10.49 25.951-30.92 25.951h-20.705zm0 92.208h25.95c44.449 0 73.435-21.535 73.435-65.154 0-39.201-21.533-67.636-69.845-67.636h-74.539v196.01h44.999zM53.833 44.17h60.46v154.6h46.655V2.76H7.178v196.01h46.655V44.17" fill="#121213"/></svg>