<?xml version="1.0" encoding="UTF-8" standalone="no"?>
<svg
   xmlns:dc="http://purl.org/dc/elements/1.1/"
   xmlns:cc="http://creativecommons.org/ns#"
   xmlns:rdf="http://www.w3.org/1999/02/22-rdf-syntax-ns#"
   xmlns:svg="http://www.w3.org/2000/svg"
   xmlns="http://www.w3.org/2000/svg"
   viewBox="0 0 1322.2652 751.91864"
   height="751.91864"
   width="1322.2653"
   xml:space="preserve"
   id="svg2"
   version="1.1"><metadata
     id="metadata8"><rdf:RDF><cc:Work
         rdf:about=""><dc:format>image/svg+xml</dc:format><dc:type
           rdf:resource="http://purl.org/dc/dcmitype/StillImage" /></cc:Work></rdf:RDF></metadata><defs
     id="defs6" /><g
     transform="matrix(1.3333333,0,0,-1.3333333,0,751.91865)"
     id="g10"><g
       transform="scale(0.1)"
       id="g12"><path
         id="path14"
         style="fill:#121213;fill-opacity:1;fill-rule:nonzero;stroke:none"
         d="M 9589.84,1488.7 9030.8,577.68 h -4.14 V 1488.7 H 8680.89 V 18.6406 h 335.42 l 550.76,890.3204 4.14,-2.07 V 18.6406 h 345.78 V 1488.7 Z m -1086.87,0 H 8066.08 L 7639.56,925.52 h -4.14 V 1488.7 H 7289.64 V 18.6406 h 345.78 V 443.09 L 7745.16,577.68 8097.14,18.6406 H 8521.6 L 7972.91,850.992 Z M 6117.87,577.68 h -4.14 V 1488.7 H 5767.96 V 18.6406 h 335.42 l 550.76,890.3204 4.14,-2.07 V 18.6406 h 345.78 V 1488.7 h -327.15 z m 273.31,1006.27 c 219.48,0 339.57,99.39 383.05,291.95 l -256.75,24.85 c -14.49,-68.33 -49.69,-130.45 -124.23,-130.45 -76.61,0 -111.8,62.12 -126.3,130.45 l -256.74,-24.85 c 45.55,-192.56 161.5,-291.95 380.97,-291.95 z M 4778.39,320.93 c -231.9,0 -395.47,192.558 -395.47,432.75 0,240.172 163.57,432.73 395.47,432.73 227.76,0 393.41,-188.422 393.41,-432.73 0,-244.328 -165.65,-432.75 -393.41,-432.75 z m 0,1188.49 c -447.23,0 -757.81,-312.66 -757.81,-755.74 C 4020.58,310.582 4331.16,0 4778.39,0 c 438.95,0 755.74,304.371 755.74,753.68 0,451.36 -316.79,755.74 -755.74,755.74 z M 3279.45,795.082 h -155.29 v 389.258 h 161.5 c 155.29,0 225.69,-82.82 225.69,-194.629 0,-122.16 -78.68,-194.629 -231.9,-194.629 z M 3345.7,1488.7 H 2786.67 V 18.6406 h 337.49 V 492.789 h 194.63 c 333.35,0 550.76,161.5 550.76,488.641 0,294.01 -161.5,507.27 -523.85,507.27 z M 1467.85,1180.2 H 1850.9 V 18.6406 h 351.99 V 1180.2 H 2588 v 308.5 H 1467.85 Z M 759.883,331.281 c -240.18,0 -395.469,184.278 -395.469,420.321 0,269.168 180.137,426.528 393.399,426.528 142.867,0 260.887,-76.61 339.567,-169.79 l 252.6,217.42 C 1188.48,1422.45 964.863,1509.42 757.813,1509.42 273.313,1509.42 0,1171.92 0,751.602 0,262.961 337.496,0 759.883,0 1020.77,0 1225.75,124.23 1352.05,279.52 l -252.6,217.41 C 1014.56,395.469 896.539,331.281 759.883,331.281 Z M 5273.23,3251.4 c 227.77,0 393.4,-188.42 393.4,-432.73 0,-244.33 -165.63,-432.75 -393.4,-432.75 -231.89,0 -395.47,192.56 -395.47,432.75 0,240.17 163.58,432.73 395.47,432.73 z m 0,-1186.41 c 438.96,0 755.74,304.37 755.74,753.68 0,451.36 -316.78,755.73 -755.74,755.73 -447.23,0 -757.81,-312.65 -757.81,-755.73 0,-443.1 310.58,-753.68 757.81,-753.68 z M 3821.9,2383.85 h -236.04 v 316.79 h 223.62 c 128.37,0 196.7,-60.04 196.7,-159.43 0,-103.53 -68.33,-157.36 -184.28,-157.36 z m -236.04,867.55 h 169.78 c 142.87,0 188.42,-57.97 188.42,-142.87 0,-97.31 -62.12,-144.93 -169.78,-144.93 h -188.42 z m 778.52,-757.81 c 0,182.2 -89.04,318.85 -298.16,372.69 v 4.14 c 169.79,66.26 221.55,198.77 221.55,325.08 0,225.69 -157.36,358.19 -482.43,358.19 H 3248.36 V 2083.63 h 631.51 c 329.22,0 484.51,171.85 484.51,409.96 z M 2258.8,2385.92 c -231.9,0 -395.47,192.56 -395.47,432.75 0,240.17 163.57,432.73 395.47,432.73 227.76,0 393.4,-188.42 393.4,-432.73 0,-244.33 -165.64,-432.75 -393.4,-432.75 z m 0,1188.48 c -447.23,0 -757.81,-312.65 -757.81,-755.73 0,-443.1 310.58,-753.68 757.81,-753.68 438.95,0 755.75,304.37 755.75,753.68 0,451.36 -316.8,755.73 -755.75,755.73 z M 403.75,2638.53 h 517.633 v -554.9 H 1269.23 V 3553.69 H 921.383 V 2944.96 H 403.75 v 608.73 H 53.832 V 2083.63 H 403.75 Z m 3080.7,2677.86 c 227.76,0 393.4,-188.42 393.4,-432.74 0,-244.32 -165.64,-432.74 -393.4,-432.74 -231.9,0 -395.47,192.56 -395.47,432.74 0,240.18 163.57,432.74 395.47,432.74 z m 0,-1186.41 c 438.95,0 755.74,304.36 755.74,753.67 0,451.37 -316.79,755.74 -755.74,755.74 -447.23,0 -757.81,-312.65 -757.81,-755.74 0,-443.09 310.58,-753.67 757.81,-753.67 z M 1830.21,5314.32 h 161.5 c 155.29,0 225.69,-82.82 225.69,-194.63 0,-122.16 -78.68,-194.63 -231.9,-194.63 h -155.29 z m 0,-691.56 h 194.63 c 333.36,0 550.76,161.51 550.76,488.65 0,294.01 -161.5,507.27 -523.84,507.27 H 1492.72 V 4148.61 h 337.49 z M 403.75,5308.11 H 857.195 V 4148.61 H 1207.11 V 5618.68 H 53.832 V 4148.61 H 403.75 v 1159.5" /></g></g></svg>