<svg xmlns="http://www.w3.org/2000/svg" width="79" height="87" viewBox="0 0 79 87"><defs><mask id="j27jb" width="2" height="2" x="-1" y="-1"><path fill="#fff" d="M18 18h43v55H18z"/><path d="M39.5 18C51.374 18 61 27.563 61 39.36c0 10.658-7.859 19.493-18.134 21.098L38.848 73l-3.656-12.71C25.382 58.308 18 49.69 18 39.36 18 27.562 27.626 18 39.5 18z"/></mask><filter id="j27ja" width="103" height="115" x="-12" y="-12" filterUnits="userSpaceOnUse"><feOffset in="SourceGraphic" result="FeOffset1037Out"/><feGaussianBlur in="FeOffset1037Out" result="FeGaussianBlur1038Out" stdDeviation="8 8"/></filter></defs><g><g><g filter="url(#j27ja)"><path fill="none" d="M39.5 18C51.374 18 61 27.563 61 39.36c0 10.658-7.859 19.493-18.134 21.098L38.848 73l-3.656-12.71C25.382 58.308 18 49.69 18 39.36 18 27.562 27.626 18 39.5 18z" mask="url(&quot;#j27jb&quot;)"/><path fill="#5a5a5a" fill-opacity=".75" d="M39.5 18C51.374 18 61 27.563 61 39.36c0 10.658-7.859 19.493-18.134 21.098L38.848 73l-3.656-12.71C25.382 58.308 18 49.69 18 39.36 18 27.562 27.626 18 39.5 18z"/></g><path fill="#fff" d="M39.5 18C51.374 18 61 27.563 61 39.36c0 10.658-7.859 19.493-18.134 21.098L38.848 73l-3.656-12.71C25.382 58.308 18 49.69 18 39.36 18 27.562 27.626 18 39.5 18z"/></g></g></svg>